<svg xmlns="http://www.w3.org/2000/svg" width="95" height="95" viewBox="0 0 95 95" fill="none">
<rect width="95" height="95" fill="white"/>
<path fill-rule="evenodd" clip-rule="evenodd" d="M4.77617 60.1826L61.7227 64.313C62.1185 64.4309 62.4788 64.6456 62.7708 64.9377C63.0629 65.2297 63.2775 65.5899 63.3954 65.9858L67.5259 78.8555C67.6787 79.3686 67.9932 79.8186 68.4224 80.1387C68.8516 80.4587 69.3727 80.6316 69.9082 80.6316C70.4436 80.6316 70.9647 80.4587 71.3939 80.1387C71.8231 79.8186 72.1376 79.3686 72.2904 78.8555L76.4209 64.9858C76.5388 64.5899 76.7534 64.2297 77.0455 63.9377C77.3376 63.6456 77.6978 63.4309 78.0936 63.313L89.9633 59.1826C90.4764 59.0297 90.9265 58.7153 91.2466 58.2861C91.5666 57.8568 91.7395 57.3357 91.7395 56.8003C91.7395 56.2649 91.5666 55.7438 91.2466 55.3146C90.9265 54.8853 90.4764 54.5709 89.9633 54.4181L78.0937 50.2876C77.6978 50.1697 77.3376 49.955 77.0455 49.663C76.7535 49.3709 76.5388 49.0107 76.4209 48.6148L72.2904 34.7452C72.1376 34.232 71.8232 33.7819 71.3939 33.4619C70.9647 33.1419 70.4436 32.969 69.9082 32.969C69.3728 32.969 68.8517 33.1419 68.4224 33.4619C67.9932 33.7819 67.6788 34.232 67.526 34.7452L63.3954 48.6148C63.2776 49.0107 63.0629 49.3709 62.7708 49.663C62.4788 49.955 62.1185 50.1697 61.7227 50.2876L4.77618 54.4181C4.26305 54.5709 3.81296 54.8853 3.49292 55.3146C3.17288 55.7438 3.00000 56.2649 3.00000 56.8003C3.00000 57.3357 3.17289 57.8568 3.49292 58.2861C3.81295 58.7153 4.26303 59.0297 4.77617 59.1826Z" fill="black"/>
<path fill-rule="evenodd" clip-rule="evenodd" d="M33.1637 29.4868L40.3578 31.9271C40.5917 31.9967 40.8045 32.1236 40.977 32.2961C41.1496 32.4687 41.2764 32.6815 41.3461 32.9154L43.7863 40.1095C43.8766 40.4126 44.0624 40.6785 44.316 40.8676C44.5696 41.0567 44.8774 41.1588 45.1937 41.1588C45.5101 41.1588 45.8179 41.0567 46.0715 40.8676C46.3251 40.6785 46.5109 40.4126 46.6011 40.1095L49.0414 32.9154C49.1111 32.6815 49.2379 32.4687 49.4104 32.2961C49.583 32.1236 49.7958 31.9967 50.0297 31.9271L57.2238 29.4868C57.5269 29.3966 57.7928 29.2108 57.9819 28.9572C58.171 28.7036 58.2731 28.3958 58.2731 28.0794C58.2731 27.7631 58.171 27.4553 57.9819 27.2017C57.7928 26.9481 57.5269 26.7623 57.2238 26.672L50.0296 24.2317C49.7958 24.1621 49.5829 24.0352 49.4104 23.8627C49.2379 23.6902 49.111 23.4773 49.0414 23.2434L46.6011 16.0493C46.5108 15.7462 46.325 15.4803 46.0715 15.2912C45.8179 15.1021 45.51 15 45.1937 15C44.8774 15 44.5695 15.1021 44.3159 15.2912C44.0623 15.4803 43.8766 15.7462 43.7863 16.0493L41.346 23.2434C41.2764 23.4773 41.1495 23.6902 40.977 23.8627C40.8044 24.0352 40.5916 24.1621 40.3578 24.2317L33.1637 26.672C32.8605 26.7622 32.5946 26.948 32.4055 27.2016C32.2164 27.4552 32.1143 27.7631 32.1143 28.0794C32.1143 28.3958 32.2164 28.7037 32.4055 28.9572C32.5946 29.2108 32.8605 29.3966 33.1637 29.4868Z" fill="black"/>
</svg>